<mxfile host="app.diagrams.net" modified="2023-06-10T09:48:24.507Z" agent="Mozilla/5.0 (Windows NT 10.0; Win64; x64) AppleWebKit/537.36 (KHTML, like Gecko) Chrome/114.0.0.0 Safari/537.36" etag="SLwlaDn6-ioyPxq67HeJ" version="21.3.8" type="device">
  <diagram name="Page-1" id="2YBvvXClWsGukQMizWep">
    <mxGraphModel dx="1050" dy="573" grid="1" gridSize="10" guides="1" tooltips="1" connect="1" arrows="1" fold="1" page="1" pageScale="1" pageWidth="850" pageHeight="1100" math="0" shadow="0">
      <root>
        <mxCell id="0" />
        <mxCell id="1" parent="0" />
        <mxCell id="aM9ryv3xv72pqoxQDRHE-7" value="Click the &lt;br&gt;&quot;Return/Refund&quot; button" style="html=1;verticalAlign=bottom;endArrow=block;edgeStyle=elbowEdgeStyle;elbow=vertical;curved=0;rounded=0;" parent="1" target="CtVGXE6oVTQ5g6WgsTcx-4" edge="1">
          <mxGeometry x="0.4722" relative="1" as="geometry">
            <mxPoint x="135" y="180" as="sourcePoint" />
            <Array as="points">
              <mxPoint x="230" y="190" />
            </Array>
            <mxPoint x="305" y="180" as="targetPoint" />
            <mxPoint as="offset" />
          </mxGeometry>
        </mxCell>
        <mxCell id="CtVGXE6oVTQ5g6WgsTcx-3" value="Order Details" style="shape=umlLifeline;perimeter=lifelinePerimeter;whiteSpace=wrap;html=1;container=0;dropTarget=0;collapsible=0;recursiveResize=0;outlineConnect=0;portConstraint=eastwest;newEdgeStyle={&quot;edgeStyle&quot;:&quot;elbowEdgeStyle&quot;,&quot;elbow&quot;:&quot;vertical&quot;,&quot;curved&quot;:0,&quot;rounded&quot;:0};" parent="1" vertex="1">
          <mxGeometry x="440" y="100" width="100" height="480" as="geometry" />
        </mxCell>
        <mxCell id="CtVGXE6oVTQ5g6WgsTcx-4" value="" style="html=1;points=[];perimeter=orthogonalPerimeter;outlineConnect=0;targetShapes=umlLifeline;portConstraint=eastwest;newEdgeStyle={&quot;edgeStyle&quot;:&quot;elbowEdgeStyle&quot;,&quot;elbow&quot;:&quot;vertical&quot;,&quot;curved&quot;:0,&quot;rounded&quot;:0};" parent="CtVGXE6oVTQ5g6WgsTcx-3" vertex="1">
          <mxGeometry x="45" y="70" width="10" height="120" as="geometry" />
        </mxCell>
        <mxCell id="CtVGXE6oVTQ5g6WgsTcx-5" value="User" style="shape=umlActor;verticalLabelPosition=bottom;verticalAlign=top;html=1;outlineConnect=0;" parent="1" vertex="1">
          <mxGeometry x="120" y="80" width="30" height="60" as="geometry" />
        </mxCell>
        <mxCell id="CtVGXE6oVTQ5g6WgsTcx-6" value="" style="endArrow=none;dashed=1;html=1;rounded=0;" parent="1" source="CtVGXE6oVTQ5g6WgsTcx-14" target="CtVGXE6oVTQ5g6WgsTcx-5" edge="1">
          <mxGeometry width="50" height="50" relative="1" as="geometry">
            <mxPoint x="135" y="410" as="sourcePoint" />
            <mxPoint x="490" y="330" as="targetPoint" />
          </mxGeometry>
        </mxCell>
        <mxCell id="CtVGXE6oVTQ5g6WgsTcx-8" value="Administrator" style="shape=umlActor;verticalLabelPosition=bottom;verticalAlign=top;html=1;outlineConnect=0;" parent="1" vertex="1">
          <mxGeometry x="290" y="80" width="30" height="60" as="geometry" />
        </mxCell>
        <mxCell id="CtVGXE6oVTQ5g6WgsTcx-13" value="" style="endArrow=none;dashed=1;html=1;rounded=0;" parent="1" edge="1">
          <mxGeometry width="50" height="50" relative="1" as="geometry">
            <mxPoint x="304.5" y="580" as="sourcePoint" />
            <mxPoint x="304.5" y="160" as="targetPoint" />
          </mxGeometry>
        </mxCell>
        <mxCell id="CtVGXE6oVTQ5g6WgsTcx-15" value="" style="endArrow=none;dashed=1;html=1;rounded=0;" parent="1" source="CtVGXE6oVTQ5g6WgsTcx-34" target="CtVGXE6oVTQ5g6WgsTcx-14" edge="1">
          <mxGeometry width="50" height="50" relative="1" as="geometry">
            <mxPoint x="135" y="580" as="sourcePoint" />
            <mxPoint x="135" y="140" as="targetPoint" />
          </mxGeometry>
        </mxCell>
        <mxCell id="CtVGXE6oVTQ5g6WgsTcx-14" value="" style="html=1;points=[];perimeter=orthogonalPerimeter;outlineConnect=0;targetShapes=umlLifeline;portConstraint=eastwest;newEdgeStyle={&quot;edgeStyle&quot;:&quot;elbowEdgeStyle&quot;,&quot;elbow&quot;:&quot;vertical&quot;,&quot;curved&quot;:0,&quot;rounded&quot;:0};" parent="1" vertex="1">
          <mxGeometry x="130" y="170" width="10" height="180" as="geometry" />
        </mxCell>
        <mxCell id="CtVGXE6oVTQ5g6WgsTcx-17" value="" style="endArrow=open;endFill=1;endSize=12;html=1;rounded=0;" parent="1" edge="1">
          <mxGeometry width="160" relative="1" as="geometry">
            <mxPoint x="140" y="339.5" as="sourcePoint" />
            <mxPoint x="300" y="339.5" as="targetPoint" />
          </mxGeometry>
        </mxCell>
        <mxCell id="CtVGXE6oVTQ5g6WgsTcx-19" value="Wait for the response&lt;br&gt;&amp;nbsp;of admin about the &lt;br&gt;decision of the refund" style="edgeLabel;html=1;align=center;verticalAlign=middle;resizable=0;points=[];" parent="CtVGXE6oVTQ5g6WgsTcx-17" vertex="1" connectable="0">
          <mxGeometry x="0.3035" y="1" relative="1" as="geometry">
            <mxPoint x="-24" y="-29" as="offset" />
          </mxGeometry>
        </mxCell>
        <mxCell id="CtVGXE6oVTQ5g6WgsTcx-20" value="" style="html=1;points=[];perimeter=orthogonalPerimeter;outlineConnect=0;targetShapes=umlLifeline;portConstraint=eastwest;newEdgeStyle={&quot;edgeStyle&quot;:&quot;elbowEdgeStyle&quot;,&quot;elbow&quot;:&quot;vertical&quot;,&quot;curved&quot;:0,&quot;rounded&quot;:0};" parent="1" vertex="1">
          <mxGeometry x="300" y="320" width="10" height="160" as="geometry" />
        </mxCell>
        <mxCell id="CtVGXE6oVTQ5g6WgsTcx-21" value="&lt;br&gt;&lt;br&gt;&lt;br&gt;&lt;br&gt;" style="endArrow=open;endSize=12;dashed=1;html=1;rounded=0;" parent="1" edge="1">
          <mxGeometry width="160" relative="1" as="geometry">
            <mxPoint x="300" y="400" as="sourcePoint" />
            <mxPoint x="140" y="400" as="targetPoint" />
          </mxGeometry>
        </mxCell>
        <mxCell id="CtVGXE6oVTQ5g6WgsTcx-22" value="Product is returned and&lt;br&gt;&amp;nbsp;money is refunded" style="edgeLabel;html=1;align=center;verticalAlign=middle;resizable=0;points=[];" parent="CtVGXE6oVTQ5g6WgsTcx-21" vertex="1" connectable="0">
          <mxGeometry x="-0.135" y="-1" relative="1" as="geometry">
            <mxPoint x="-11" y="-24" as="offset" />
          </mxGeometry>
        </mxCell>
        <mxCell id="CtVGXE6oVTQ5g6WgsTcx-31" value="Display the options for&lt;br&gt;&amp;nbsp;the reason of cancellation&lt;br&gt;&amp;nbsp;of the product" style="html=1;verticalAlign=bottom;endArrow=open;dashed=1;endSize=8;edgeStyle=elbowEdgeStyle;elbow=vertical;curved=0;rounded=0;entryX=1;entryY=0.5;entryDx=0;entryDy=0;entryPerimeter=0;" parent="1" target="CtVGXE6oVTQ5g6WgsTcx-14" edge="1">
          <mxGeometry x="-0.4706" relative="1" as="geometry">
            <mxPoint x="480" y="260" as="sourcePoint" />
            <mxPoint x="420" y="370" as="targetPoint" />
            <mxPoint as="offset" />
          </mxGeometry>
        </mxCell>
        <mxCell id="CtVGXE6oVTQ5g6WgsTcx-32" value="&lt;br&gt;&lt;br&gt;&lt;br&gt;&lt;br&gt;" style="endArrow=open;endSize=12;dashed=1;html=1;rounded=0;" parent="1" edge="1">
          <mxGeometry width="160" relative="1" as="geometry">
            <mxPoint x="300" y="470" as="sourcePoint" />
            <mxPoint x="140" y="470" as="targetPoint" />
          </mxGeometry>
        </mxCell>
        <mxCell id="CtVGXE6oVTQ5g6WgsTcx-33" value="Product is unreturned and&lt;br&gt;&amp;nbsp;money is not refunded" style="edgeLabel;html=1;align=center;verticalAlign=middle;resizable=0;points=[];" parent="CtVGXE6oVTQ5g6WgsTcx-32" vertex="1" connectable="0">
          <mxGeometry x="-0.135" y="-1" relative="1" as="geometry">
            <mxPoint x="-11" y="-24" as="offset" />
          </mxGeometry>
        </mxCell>
        <mxCell id="CtVGXE6oVTQ5g6WgsTcx-35" value="" style="endArrow=none;dashed=1;html=1;rounded=0;" parent="1" target="CtVGXE6oVTQ5g6WgsTcx-34" edge="1">
          <mxGeometry width="50" height="50" relative="1" as="geometry">
            <mxPoint x="135" y="580" as="sourcePoint" />
            <mxPoint x="135" y="350" as="targetPoint" />
          </mxGeometry>
        </mxCell>
        <mxCell id="CtVGXE6oVTQ5g6WgsTcx-34" value="" style="html=1;points=[];perimeter=orthogonalPerimeter;outlineConnect=0;targetShapes=umlLifeline;portConstraint=eastwest;newEdgeStyle={&quot;edgeStyle&quot;:&quot;elbowEdgeStyle&quot;,&quot;elbow&quot;:&quot;vertical&quot;,&quot;curved&quot;:0,&quot;rounded&quot;:0};" parent="1" vertex="1">
          <mxGeometry x="130" y="380" width="10" height="110" as="geometry" />
        </mxCell>
        <mxCell id="CtVGXE6oVTQ5g6WgsTcx-36" value="UC012_SequenceDiagram" style="shape=umlFrame;whiteSpace=wrap;html=1;pointerEvents=0;width=170;height=30;" parent="1" vertex="1">
          <mxGeometry x="80" y="40" width="480" height="600" as="geometry" />
        </mxCell>
      </root>
    </mxGraphModel>
  </diagram>
</mxfile>
